<svg width="73" height="64" viewBox="0 0 73 64" fill="none" xmlns="http://www.w3.org/2000/svg">
<path d="M61.4395 0.127258C60.1051 0.18831 59.3419 1.03431 59.3419 2.46029V6.94321H64.0603C65.3686 6.89088 66.1579 6.04052 66.1579 4.60145V0.127258H61.4395Z" fill="#204D88"/>
<path d="M50.9692 2.46029V6.94757H55.6876C56.9959 6.89088 57.7852 6.04052 57.7852 4.60145V0.127258H53.0668C51.7324 0.18831 50.9692 1.03431 50.9692 2.46029Z" fill="#204D88"/>
<path d="M12.6813 0.973252C12.3896 0.657363 12.0303 0.411405 11.6303 0.253718C11.1732 0.0766573 10.6858 -0.00926501 10.1956 0.000790884C9.70408 -0.00882807 9.21535 0.07707 8.75655 0.253718C8.35581 0.408295 7.99509 0.65126 7.70124 0.96453C7.41129 1.28641 7.1915 1.66511 7.05584 2.07654C6.90606 2.54284 6.83244 3.03023 6.8378 3.51997C6.83312 4.00965 6.90673 4.49694 7.05584 4.9634C7.18929 5.38493 7.40909 5.77404 7.70124 6.10593C7.99391 6.42585 8.3545 6.67618 8.75655 6.83854C9.21417 7.02025 9.70333 7.10919 10.1956 7.10019H10.357H10.5183L11.7132 8.29506H13.3703L11.8266 6.76005C12.1204 6.60669 12.3882 6.40802 12.6202 6.17134C12.8389 5.95405 13.0202 5.70209 13.1566 5.42564C13.2931 5.14867 13.3941 4.85566 13.4575 4.55348C13.5196 4.22867 13.5503 3.89863 13.5491 3.56794C13.5556 3.08063 13.4805 2.59568 13.3267 2.13323C13.1929 1.72094 12.9729 1.34187 12.6813 1.02122M12.0141 4.47062C11.9481 4.74209 11.836 5.00022 11.6827 5.23377C11.5326 5.46815 11.3294 5.66387 11.0896 5.80503C10.8161 5.9549 10.5074 6.02869 10.1956 6.01871C9.89101 6.02691 9.58979 5.95311 9.32346 5.80503C9.07983 5.66579 8.87339 5.46982 8.72167 5.23377C8.56491 4.99313 8.44991 4.72775 8.38152 4.44882C8.24206 3.861 8.24206 3.2487 8.38152 2.66089C8.44734 2.37702 8.56247 2.10692 8.72167 1.86286C8.87646 1.63708 9.07891 1.44803 9.31474 1.30903C9.58064 1.15944 9.88189 1.08413 10.1869 1.09099C10.4909 1.08355 10.7916 1.15571 11.0591 1.30031C11.2973 1.43789 11.5004 1.62898 11.6521 1.8585C11.8163 2.08769 11.9374 2.34479 12.0097 2.61728C12.0808 2.90999 12.1174 3.21002 12.1187 3.51125C12.1189 3.81518 12.0838 4.1181 12.0141 4.41393" fill="#204D88"/>
<path d="M16.4315 0.114136H15.0579V6.96061H16.4315V0.114136Z" fill="#204D88"/>
<path d="M25.8552 0.114136L24.5731 5.58696H24.5513L23.3433 0.114136H21.4813L20.3126 5.58696H20.2951L19.0218 0.114136H17.574L19.3881 6.96497H21.1673L22.384 1.49215H22.4014L23.6355 6.96497H25.406L27.1896 0.114136H25.8552Z" fill="#204D88"/>
<path d="M29.405 5.39508H32.1828L32.7716 6.97805H34.2891L31.6029 0.114136H30.0504L27.3816 6.97805H28.8032L29.405 5.39508ZM30.7874 1.49215L31.7817 4.3136H29.7975L30.7874 1.49215Z" fill="#204D88"/>
<path d="M44.1314 43.6918V46.2559C44.1314 46.2559 44.0268 48.9117 43.582 50.0324C43.282 50.7853 42.8623 51.4848 42.3391 52.1038C41.6714 52.902 40.8468 53.5545 39.9163 54.0206C38.9859 54.4867 37.9695 54.7566 36.9304 54.8134C35.8913 54.8703 34.8515 54.7129 33.8758 54.351C32.9001 53.9892 32.0091 53.4306 31.2583 52.7099C31.1216 52.5833 30.9758 52.4667 30.8222 52.3611C30.679 52.2617 30.5237 52.1811 30.36 52.1212C30.1557 52.0392 29.9293 52.0299 29.719 52.095L29.6056 52.1561C29.3802 52.2945 29.1672 52.4521 28.9689 52.6271C28.5839 52.9406 28.2291 53.2895 27.9092 53.6693C27.4148 54.2406 26.9767 54.8584 26.601 55.5139C26.5574 55.5881 26.5181 55.6622 26.4789 55.7363C26.3798 56.143 26.3788 56.5673 26.4758 56.9745C26.5729 57.3816 26.7652 57.7598 27.0371 58.0781L27.1156 58.2089C27.2911 58.3969 27.4775 58.5746 27.6737 58.7409L27.8351 58.8892C32.4488 62.7441 38.7894 61.7194 41.3013 61.1001C41.6871 61.0169 42.0673 60.9091 42.4394 60.7774L42.5397 60.7425C42.8494 60.6335 43.0979 60.5332 43.3247 60.4286L43.4555 60.3762C43.5256 60.3448 43.594 60.3099 43.6605 60.2716L43.7084 60.241C45.8275 59.2334 47.6354 57.6726 48.9414 55.7232C50.3324 53.5763 51.0422 51.0591 50.9779 48.5017V43.7572C49.6982 43.0528 48.5238 42.172 47.4893 41.1407C46.487 42.1319 45.3562 42.9841 44.1271 43.6743" fill="#204D88"/>
<path d="M63.9165 10.3315L63.8554 10.3054C63.2346 10.0617 62.5979 9.86065 61.9497 9.70359L61.7099 9.65126C61.4003 9.58149 61.0907 9.52043 60.7767 9.47247H60.7113C60.4147 9.42886 60.1138 9.39397 59.813 9.37217H59.5557C59.233 9.35036 58.9103 9.33728 58.5832 9.33728C58.2213 9.33728 57.8637 9.33728 57.5061 9.38089H57.2793C56.9348 9.41141 56.599 9.45502 56.2633 9.50735L56.0408 9.5466C55.7181 9.60765 55.3955 9.67306 55.0771 9.75156H54.9943C54.641 9.84313 54.3009 9.94779 53.9607 10.0655L53.8125 10.1135C53.4549 10.24 53.106 10.3795 52.7659 10.5278C50.8485 11.3787 49.1381 12.6348 47.7522 14.2096C46.3664 15.7844 45.3379 17.6406 44.7376 19.6506C44.7356 19.6636 44.7356 19.6768 44.7376 19.6898C44.6112 20.1259 44.5065 20.5358 44.4193 20.9719C44.4193 20.9981 44.4193 21.0199 44.4193 21.0461C44.3364 21.4821 44.271 21.9182 44.2274 22.3543C44.2297 22.379 44.2297 22.4038 44.2274 22.4284C44.2274 22.6508 44.1925 22.8645 44.1794 23.0913V23.2221C44.1794 23.4009 44.1794 23.5753 44.1794 23.7585V30.0075C44.1794 30.2474 44.1794 30.4872 44.1446 30.7227C44.1446 30.823 44.1184 30.9277 44.1053 31.028C44.0922 31.1283 44.0704 31.2852 44.0443 31.4161C44.0181 31.5469 43.9919 31.6646 43.9614 31.7867C43.9309 31.9088 43.9134 31.9873 43.8873 32.0833C43.8611 32.1792 43.8044 32.3493 43.7608 32.4801C43.7172 32.6109 43.6997 32.6502 43.6649 32.7374C43.63 32.8246 43.5602 32.9991 43.5035 33.1299L43.3858 33.3697C43.3247 33.4962 43.2593 33.6226 43.1895 33.7447C43.1198 33.8668 43.0936 33.9061 43.0456 33.9846C42.9977 34.0631 42.9017 34.2201 42.8276 34.3291C42.7535 34.4381 42.7011 34.4948 42.6401 34.5777L42.4089 34.8829L42.3217 34.9745C42.1778 35.1446 42.0252 35.3059 41.8638 35.4629L41.6851 35.6286C41.5499 35.7464 41.4147 35.8685 41.249 35.9775L41.0222 36.1519C40.887 36.2479 40.7518 36.3438 40.6123 36.431C40.4727 36.5182 40.4379 36.54 40.3506 36.588C40.2634 36.636 40.0672 36.745 39.9146 36.8191C39.7619 36.8933 39.7314 36.9107 39.6398 36.9499C39.5483 36.9892 39.3389 37.0764 39.2038 37.1331C39.0686 37.1898 39.0162 37.2072 38.9159 37.2378C38.8156 37.2683 38.6063 37.3293 38.4493 37.3686C38.2923 37.4078 38.2487 37.4253 38.1484 37.4471C38.0481 37.4689 37.8345 37.5038 37.6775 37.5256C37.5205 37.5474 37.4638 37.5648 37.3504 37.5735C37.237 37.5823 37.0582 37.5735 36.9143 37.5997C36.7704 37.6259 36.6788 37.5997 36.5611 37.5997H36.3518C36.1861 37.5997 36.0247 37.5997 35.8634 37.5735C35.702 37.5474 35.6322 37.5474 35.5189 37.5299C35.4055 37.5125 35.2877 37.4994 35.17 37.4776C35.0523 37.4558 34.9258 37.4253 34.8037 37.3991L34.4984 37.3206L34.1321 37.2072L33.8487 37.1026C33.7266 37.0546 33.6088 37.011 33.4911 36.9587C33.3733 36.9063 33.3123 36.8715 33.2207 36.8278C33.1291 36.7842 32.9896 36.7188 32.8762 36.6534L32.6451 36.5139C32.4234 36.3807 32.2093 36.2351 32.0041 36.0778C31.0803 35.3835 30.3259 34.4889 29.7975 33.4613C29.7233 33.7709 29.6492 34.0849 29.5576 34.3989C28.9109 36.554 27.8139 38.5472 26.3394 40.2467C27.7225 41.6246 29.3686 42.7102 31.1799 43.4388H31.2409C31.8598 43.6849 32.4951 43.8875 33.1422 44.045L33.3777 44.1017C33.6873 44.1671 33.9969 44.2325 34.3109 44.2805H34.3807C34.6772 44.3241 34.9738 44.3546 35.279 44.3808H35.5319C35.8546 44.3808 36.1773 44.42 36.5088 44.42C36.8707 44.42 37.2327 44.42 37.5903 44.3764H37.8127C38.1572 44.3459 38.4929 44.3023 38.8287 44.2456C38.9029 44.2456 38.977 44.2194 39.0511 44.2063C39.3782 44.1497 39.6965 44.0842 40.0149 44.0057H40.1021C40.4509 43.9142 40.7911 43.8095 41.1312 43.6961L41.2839 43.6438C41.6371 43.5173 41.9859 43.3821 42.3261 43.2077C44.3319 42.3227 46.1118 40.996 47.5329 39.3266C47.6899 39.1434 47.8425 38.9516 47.969 38.7597C48.1129 38.5678 48.2568 38.3716 48.4051 38.171V38.1404C48.5359 37.9486 48.6624 37.7567 48.7845 37.5561C48.7965 37.53 48.8111 37.5052 48.8281 37.482C48.9414 37.2944 49.0505 37.1113 49.1508 36.9194L49.2293 36.7712C49.3208 36.6011 49.4081 36.431 49.4909 36.2566C49.5302 36.1781 49.565 36.0952 49.6043 36.0124C49.6435 35.9295 49.7395 35.7202 49.8005 35.5763C49.8616 35.4324 49.9052 35.3103 49.9575 35.1751C50.0098 35.0399 50.0404 34.9701 50.0753 34.8655C50.1625 34.6256 50.2453 34.3771 50.3151 34.1285V34.0936C50.4372 33.6575 50.5419 33.2433 50.6291 32.8072V32.7374C50.7076 32.3013 50.773 31.8652 50.8166 31.4292C50.8166 31.403 50.8166 31.3768 50.8166 31.355C50.8558 30.9189 50.882 30.4829 50.882 30.0206V23.7585C50.882 23.5186 50.882 23.2788 50.9169 23.0433C50.9169 22.9387 50.9431 22.8384 50.9561 22.7337C50.9692 22.629 50.9954 22.4764 51.0172 22.3499C51.039 22.2235 51.0695 22.1014 51.1 21.9749C51.1306 21.8485 51.148 21.7787 51.1785 21.6784C51.2091 21.5781 51.257 21.4124 51.305 21.2815C51.353 21.1507 51.3617 21.1115 51.3966 21.0286C51.4315 20.9458 51.5012 20.7626 51.5579 20.6318L51.6757 20.3919C51.7367 20.2655 51.8021 20.1434 51.8719 20.0169L52.0158 19.7771C52.09 19.6637 52.1597 19.5459 52.2382 19.4326C52.3167 19.3192 52.3603 19.2712 52.4214 19.1884C52.4824 19.1055 52.574 18.979 52.6569 18.8831L52.7354 18.7915C52.8836 18.6215 53.0362 18.4557 53.1976 18.2987C53.2586 18.2464 53.3197 18.1941 53.3764 18.1374C53.5116 18.0153 53.6468 17.8976 53.8125 17.7842L54.0392 17.6141C54.1744 17.5138 54.314 17.4222 54.4753 17.3307L54.7326 17.1737C54.8722 17.0952 55.0161 17.0167 55.1687 16.9469L55.4478 16.8117C55.596 16.7463 55.7443 16.6896 55.8839 16.6329L56.1717 16.5239C56.3243 16.4759 56.4813 16.4367 56.6383 16.3931C56.7953 16.3495 56.8389 16.3364 56.9392 16.3146L57.4101 16.2361L57.7372 16.1881L58.1733 16.162C58.291 16.162 58.4044 16.162 58.5222 16.162H58.7315C58.8972 16.162 59.0585 16.162 59.2199 16.1881L59.5687 16.2317L59.9132 16.2841L60.2796 16.3669C60.3842 16.3887 60.4845 16.4149 60.5848 16.4454C60.6851 16.4759 60.8334 16.5152 60.9511 16.5588C61.0689 16.6024 61.143 16.6242 61.2346 16.6634C61.3262 16.7027 61.4788 16.755 61.5965 16.8074L61.8625 16.9338C61.9803 16.9905 62.098 17.0472 62.2114 17.1082L62.4469 17.2522C63.5649 17.9349 64.4905 18.8915 65.136 20.0315C65.7815 21.1715 66.1257 22.4572 66.1361 23.7672V30.0075C66.1361 30.2517 66.1361 30.4916 66.1012 30.7271C66.1012 30.8274 66.0751 30.932 66.062 31.0323C66.0489 31.1326 66.0228 31.2896 66.0009 31.4204C65.9791 31.5513 65.9486 31.669 65.9181 31.7911C65.8876 31.9132 65.8701 31.9917 65.8396 32.0876C65.8091 32.1836 65.7611 32.3536 65.7175 32.4845C65.6739 32.6153 65.6564 32.6545 65.6216 32.7418C65.5867 32.829 65.5169 33.0034 65.4602 33.1342L65.3425 33.3741C65.2814 33.5005 65.216 33.627 65.1462 33.7491C65.0765 33.8712 65.0503 33.9105 65.0023 33.989C64.9543 34.0674 64.8584 34.2244 64.7799 34.3335C64.7014 34.4425 64.6578 34.4992 64.5968 34.582C64.5357 34.6649 64.4441 34.787 64.3613 34.8873L64.2784 34.9789C64.1302 35.1489 63.9819 35.3103 63.8205 35.4673L63.6417 35.633C63.5066 35.7507 63.3714 35.8728 63.2275 35.9818C63.1533 36.0429 63.0748 36.0996 62.9963 36.1563C62.9179 36.213 62.726 36.3482 62.5864 36.4354C62.4469 36.5226 62.4164 36.5444 62.3291 36.5924C62.2419 36.6403 62.0457 36.7493 61.8931 36.8235C61.7404 36.8976 61.7099 36.9151 61.614 36.9543C61.518 36.9936 61.3174 37.0808 61.1779 37.1375L60.8901 37.2421C60.7374 37.2945 60.5805 37.3337 60.4235 37.3729L60.1226 37.4514C59.9656 37.4863 59.8086 37.5081 59.6516 37.5299C59.4946 37.5517 59.4336 37.5692 59.3245 37.5779C59.2155 37.5866 59.028 37.5779 58.8885 37.6041C58.7489 37.6302 58.6573 37.6041 58.5396 37.6041H58.3303C58.1646 37.6041 58.0032 37.6041 57.8419 37.5779C57.6805 37.5517 57.6107 37.5517 57.493 37.5343C57.3753 37.5169 57.2619 37.5038 57.1485 37.482C57.0351 37.4602 56.9043 37.4296 56.7822 37.4035L56.4769 37.325L56.1106 37.2116L55.8272 37.1069C55.7051 37.059 55.583 37.0154 55.4652 36.963L55.1992 36.8322C55.0815 36.7755 54.9637 36.7232 54.8503 36.6578C54.737 36.5924 54.7021 36.5662 54.6236 36.5182C54.4012 36.3861 54.1871 36.2405 53.9825 36.0821C53.0572 35.3883 52.3013 34.4938 51.7716 33.4657C51.7018 33.7753 51.6233 34.0849 51.5318 34.3989C50.9174 36.5497 49.8514 38.5448 48.4051 40.2511C49.7908 41.6287 51.4401 42.7129 53.2543 43.4388H53.3153C53.9355 43.6845 54.5723 43.8856 55.221 44.0406L55.4609 44.0973C55.7705 44.1627 56.0801 44.2281 56.3941 44.2761H56.4595C56.756 44.3197 57.0569 44.3502 57.3578 44.3764H57.6151C57.9378 44.3764 58.2605 44.4157 58.5876 44.4157C58.9495 44.4157 59.3115 44.4157 59.6647 44.372H59.8914C60.236 44.3415 60.5717 44.2979 60.9075 44.2412C60.9816 44.2412 61.0558 44.2151 61.1299 44.202C61.4526 44.1453 61.7753 44.0799 62.0893 44.0014H62.1809C62.5297 43.9098 62.8699 43.8051 63.21 43.6918L63.3627 43.6394C63.7159 43.513 64.0647 43.3778 64.4049 43.2034C66.3231 42.3536 68.0342 41.098 69.4202 39.523C70.8062 37.948 71.8341 36.0912 72.4331 34.0805V34.0456C72.5552 33.6096 72.6599 33.1953 72.7471 32.7592C72.7451 32.736 72.7451 32.7126 72.7471 32.6894C72.8256 32.2533 72.891 31.8173 72.9346 31.3812C72.9323 31.3565 72.9323 31.3317 72.9346 31.3071C72.9739 30.871 73 30.4349 73 29.9683V23.7585C72.9956 20.8656 72.1245 18.0403 70.4992 15.6471C68.874 13.2539 66.569 11.4024 63.8816 10.3315" fill="#204D88"/>
<path d="M28.3191 34.0718C28.4412 33.6357 28.5459 33.2214 28.6331 32.7854V32.7156C28.716 32.2795 28.777 31.8434 28.8206 31.4073C28.8227 31.3827 28.8227 31.3579 28.8206 31.3332C28.8642 30.8971 28.886 30.461 28.886 29.9944L28.9165 23.7454C28.9198 22.0874 29.4629 20.4757 30.4637 19.1538C31.4645 17.832 32.8686 16.8721 34.4635 16.4192H34.5376C34.7472 16.3614 34.9598 16.3148 35.1743 16.2797L35.3749 16.2448H35.5275L35.7979 16.2143H36.1468C36.2645 16.2143 36.3779 16.2143 36.5 16.2143H36.7093C36.8721 16.2143 37.0335 16.223 37.1934 16.2404L37.5422 16.284L37.8867 16.3364L38.253 16.4192C38.3577 16.441 38.458 16.4672 38.5583 16.4977C38.6586 16.5282 38.8069 16.5675 38.929 16.6111C39.0511 16.6547 39.1165 16.6765 39.2124 16.7158C39.3084 16.755 39.4523 16.8073 39.57 16.8597L39.836 16.9861C39.9538 17.0428 40.0715 17.0995 40.1849 17.1606L40.4204 17.3045C40.6384 17.4353 40.8565 17.5792 41.0527 17.7406C41.9771 18.4353 42.7328 19.3297 43.2636 20.357C43.2941 20.2262 43.3247 20.0998 43.3596 19.9646C43.3944 19.8294 43.4511 19.6113 43.5035 19.4282C43.5863 19.1535 43.6735 18.8831 43.7695 18.6127C43.8218 18.4644 43.8829 18.3162 43.9439 18.1766C44.005 18.0371 44.0268 17.9499 44.0747 17.8365C44.1576 17.6359 44.2492 17.4397 44.3407 17.2434C44.3669 17.1867 44.3887 17.1257 44.4192 17.069C44.5283 16.8422 44.646 16.6329 44.7637 16.3931C44.7637 16.3713 44.7637 16.3495 44.7986 16.332C44.9295 16.0878 45.069 15.8523 45.2347 15.6168C45.667 14.88 46.1569 14.1787 46.6999 13.5193C46.0922 12.9143 45.431 12.3656 44.7245 11.8796C42.3259 10.2044 39.4693 9.30909 36.5436 9.31546C36.1075 9.31546 35.6714 9.34163 35.2354 9.38088H35.1394L34.7339 9.42448L34.2193 9.49862L33.9969 9.53787C33.6742 9.59892 33.3515 9.66433 33.0332 9.74282H32.9503C32.6014 9.83295 32.2569 9.93761 31.9168 10.0568L31.7685 10.1048C31.4109 10.2312 31.0664 10.3708 30.7219 10.519C28.7999 11.3706 27.0854 12.6286 25.6964 14.2066C24.3074 15.7845 23.277 17.6448 22.6762 19.6593C22.6762 19.6593 22.6762 19.6855 22.6762 19.6986C22.5541 20.1346 22.4451 20.5446 22.3622 20.9806V21.0548C22.2767 21.4872 22.2141 21.9239 22.1747 22.363C22.1747 22.363 22.1747 22.411 22.1747 22.4372C22.1355 22.8732 22.1137 23.3093 22.1137 23.7716V30.0075C22.1138 30.2465 22.1007 30.4852 22.0744 30.7227C22.0744 30.823 22.0483 30.9277 22.0352 31.028C22.0221 31.1283 22.0003 31.2852 21.9785 31.4161C21.9567 31.5469 21.9218 31.6646 21.8913 31.7867C21.8608 31.9088 21.8433 31.9873 21.8171 32.0833C21.791 32.1792 21.7343 32.3493 21.6907 32.4801L21.5991 32.7374C21.5468 32.8682 21.4901 32.999 21.4334 33.1299C21.3986 33.2119 21.3592 33.292 21.3157 33.3697C21.2546 33.4962 21.1935 33.6226 21.1238 33.7447C21.054 33.8668 21.0235 33.9061 20.9755 33.9846C20.9275 34.0631 20.836 34.2201 20.7575 34.3291C20.679 34.4381 20.6354 34.4948 20.57 34.5777C20.5045 34.6605 20.4217 34.7826 20.3388 34.8829L20.256 34.9745C20.1077 35.1446 19.9551 35.3059 19.7937 35.4629L19.6149 35.6286C19.4797 35.7463 19.3446 35.8685 19.205 35.9775L18.9739 36.1519C18.8387 36.2478 18.7035 36.3438 18.564 36.431C18.4244 36.5182 18.3895 36.54 18.3023 36.588C18.2151 36.636 18.0189 36.745 17.8662 36.8191C17.7136 36.8932 17.6831 36.9107 17.5915 36.9499C17.4999 36.9892 17.2906 37.0764 17.1554 37.1331L16.8676 37.2377C16.7106 37.2901 16.5536 37.3293 16.3967 37.3686C16.2397 37.4078 16.1961 37.4253 16.0958 37.4471C15.9955 37.4689 15.7818 37.5038 15.6248 37.5256C15.4678 37.5474 15.4111 37.5648 15.3021 37.5735C15.1931 37.5823 15.0056 37.5735 14.866 37.5997C14.7265 37.6259 14.6305 37.5997 14.5128 37.5997H14.3035H13.9328H13.7976L13.4705 37.5561L13.1653 37.5038L12.9909 37.4732L12.847 37.4383L12.6115 37.386H12.5548C10.9303 36.9545 9.49389 35.9985 8.46872 34.6666C7.44355 33.3347 6.88705 31.7014 6.88572 30.0206V23.7585C6.88658 23.4771 6.90405 23.1961 6.93805 22.9168L6.96858 22.5331L7.00346 22.0098C7.12074 21.0046 7.40057 20.0252 7.83202 19.1098C8.14422 18.4456 8.5383 17.8229 9.00508 17.2565C9.45447 16.7078 9.97173 16.2184 10.5444 15.8L10.732 15.6517L10.7712 15.6212C10.9196 15.4989 11.0451 15.3512 11.1419 15.1851L11.1637 15.1459C11.1637 15.1197 11.1942 15.0935 11.2116 15.0717C11.275 14.9643 11.3179 14.846 11.3381 14.7229V14.6444C11.3041 14.2217 11.176 13.8119 10.9631 13.4452L10.9413 13.4015C10.5059 12.6785 9.94638 12.0378 9.28853 11.509L9.1359 11.3825L9.05305 11.3389C8.98566 11.2902 8.9158 11.2451 8.84373 11.2037C8.42106 10.9169 7.92201 10.7635 7.4112 10.7635C6.90039 10.7635 6.40134 10.9169 5.97867 11.2037C5.42515 11.5415 4.92782 11.9638 4.50472 12.4552C1.99122 15.0566 0.45113 18.4448 0.143907 22.049V22.1929V22.2714C0.0922322 22.7669 0.0660329 23.2647 0.0654122 23.7628L0 30.0075C0.00385613 32.9005 0.874088 35.7261 2.49853 38.12C4.12297 40.5139 6.42716 42.3665 9.1141 43.4388H9.17515C9.79686 43.6853 10.4351 43.8879 11.0852 44.045L11.3207 44.1017C11.6303 44.1671 11.9399 44.2325 12.2539 44.2805H12.3237L12.8949 44.3502L13.1653 44.3764H13.222H13.4793H13.5185L13.8848 44.3982H14.3471H14.4387C14.805 44.3982 15.1625 44.3982 15.5201 44.3546H15.7469C16.087 44.3241 16.4272 44.2805 16.7586 44.2238C16.8371 44.2238 16.9069 44.1976 16.9854 44.1845C17.3081 44.1278 17.6264 44.0624 17.9447 43.9839H18.032C18.3808 43.8923 18.7253 43.7877 19.0611 43.6743L19.2137 43.622C19.567 43.4955 19.9158 43.3603 20.256 43.1859C22.1737 42.3426 23.8863 41.0946 25.2765 39.5275C26.6668 37.9604 27.7017 36.1112 28.3104 34.1067C28.3084 34.0951 28.3084 34.0833 28.3104 34.0718" fill="#204D88"/>
</svg>
